<svg width="522" height="87" viewBox="0 0 522 87" fill="none" xmlns="http://www.w3.org/2000/svg">
<path d="M83.4014 65.239V32.5236C83.4014 30.2715 84.5077 28.9083 86.7204 28.4342C89.0515 27.9206 92.0149 27.6637 95.6104 27.6637C105.844 27.6637 110.961 31.7729 110.961 39.9913C110.961 42.7966 110.289 45.1672 108.945 47.1033C107.602 49.0393 105.785 50.4025 103.493 51.1927L111.02 62.6312C111.731 63.698 112.027 64.7846 111.909 65.8909C111.79 66.9577 111.277 67.7677 110.368 68.3209C108.274 69.5062 106.476 68.8543 104.975 66.365L96.5587 52.4966C96.045 52.5756 95.1956 52.6151 94.0102 52.6151C92.7459 52.6151 91.5803 52.5361 90.5135 52.378V65.239C90.5135 66.3058 90.1974 67.175 89.5652 67.8467C88.933 68.5184 88.0638 68.8543 86.9574 68.8543C85.8116 68.8543 84.9226 68.5184 84.2904 67.8467C83.6978 67.175 83.4014 66.3058 83.4014 65.239ZM94.5436 47.2811C97.586 47.2811 99.8381 46.7477 101.3 45.6809C102.762 44.5746 103.493 42.8163 103.493 40.4061C103.493 36.1389 100.668 34.0053 95.0178 34.0053C93.9905 34.0053 92.489 34.1238 90.5135 34.3609V47.044C91.7383 47.2021 93.0817 47.2811 94.5436 47.2811Z" fill="#22ABE2"/>
<path d="M71.4693 66.0687L68.1504 57.2972H52.9188L49.8369 65.6538C48.8491 68.4986 47.2292 69.4667 44.977 68.5579C43.2385 67.8072 42.8434 66.1872 43.7917 63.698L57.1267 30.2715C57.8774 28.3354 59.0825 27.3674 60.742 27.3674C62.3225 27.3674 63.4683 28.2169 64.1795 29.9159L77.9294 63.6387C78.3641 64.508 78.4431 65.4563 78.1665 66.4836C77.9294 67.5108 77.317 68.2023 76.3292 68.5579C75.2229 68.953 74.2351 68.9333 73.3659 68.4986C72.5361 68.0245 71.904 67.2145 71.4693 66.0687ZM60.3864 36.7908L54.8153 51.7261H66.1353L60.3864 36.7908Z" fill="#22ABE2"/>
<path d="M7.51382 30.2715L19.6043 49.3554L31.4577 30.2122C32.4059 28.7108 33.5715 27.9601 34.9544 27.9601C36.0212 27.9601 36.8312 28.2959 37.3844 28.9676C37.977 29.6393 38.2734 30.5283 38.2734 31.6346V65.239C38.2734 66.3058 37.9573 67.175 37.3251 67.8467C36.7324 68.5184 35.8632 68.8543 34.7174 68.8543C33.611 68.8543 32.7418 68.5184 32.1096 67.8467C31.4774 67.175 31.1613 66.3058 31.1613 65.239V41.1173L22.5084 55.1043C21.6391 56.5267 20.5526 57.2379 19.2487 57.2379C17.9053 57.2379 16.799 56.5465 15.9297 55.1636L7.15822 41.4137V65.239C7.15822 67.6492 6.05191 68.8543 3.83927 68.8543C1.62664 68.8543 0.520325 67.6492 0.520325 65.239V31.6939C0.520325 30.4295 0.816659 29.501 1.40933 28.9083C2.04151 28.2761 2.85149 27.9601 3.83927 27.9601C5.3407 27.9601 6.56555 28.7305 7.51382 30.2715Z" fill="#22ABE2"/>
<path d="M508.428 31.4394C505.504 31.4394 503.291 32.0913 501.79 33.3952C500.328 34.6595 499.597 36.2993 499.597 38.3143C499.597 40.3689 500.368 42.0284 501.908 43.2928C503.449 44.5571 505.306 45.5449 507.48 46.2561C509.692 46.9673 511.885 47.7378 514.058 48.5675C516.271 49.3577 518.148 50.6023 519.689 52.3013C521.23 54.0003 522 56.1932 522 58.88C522 62.357 520.775 65.1425 518.325 67.2366C515.876 69.2912 512.418 70.3185 507.954 70.3185C503.884 70.3185 500.348 69.5283 497.345 67.9478C494.974 66.6439 494.145 65.4191 494.856 64.2733C494.935 64.1152 495.034 63.9967 495.152 63.9177C495.271 63.7991 495.389 63.7399 495.508 63.7399C495.666 63.7003 495.804 63.6806 495.923 63.6806C496.041 63.6411 496.179 63.6411 496.337 63.6806C496.535 63.7201 496.693 63.7794 496.812 63.8584C496.93 63.8979 497.088 63.9769 497.286 64.0955C497.483 64.1745 497.641 64.2535 497.76 64.3325C497.918 64.372 498.096 64.4511 498.293 64.5696C498.53 64.6881 498.708 64.7869 498.827 64.8659C501.592 66.3674 504.694 67.1181 508.132 67.1181C511.292 67.1181 513.782 66.4661 515.599 65.1623C517.417 63.8189 518.325 61.9026 518.325 59.4134C518.325 57.5958 517.772 56.0747 516.666 54.8498C515.56 53.5855 514.177 52.6569 512.517 52.0643C510.858 51.4321 509.06 50.7406 507.124 49.9899C505.188 49.2392 503.39 48.4885 501.731 47.7378C500.071 46.9476 498.688 45.7622 497.582 44.1818C496.476 42.6013 495.923 40.685 495.923 38.4329C495.923 35.4695 496.989 33.0396 499.123 31.143C501.296 29.207 504.437 28.239 508.546 28.239C512.379 28.239 515.698 29.1082 518.503 30.8467C520.36 31.9925 520.953 33.0593 520.281 34.0471C519.807 34.7583 518.642 34.62 516.784 33.6322C516.666 33.5927 516.587 33.5532 516.547 33.5137C513.9 32.1308 511.194 31.4394 508.428 31.4394Z" fill="#717171"/>
<path d="M484.29 63.2657V30.7281C484.29 29.4638 484.844 28.8316 485.95 28.8316C487.056 28.8316 487.609 29.4638 487.609 30.7281V67.8293C487.609 68.3824 487.451 68.8368 487.135 69.1924C486.819 69.548 486.404 69.7258 485.891 69.7258C485.258 69.7258 484.666 69.4097 484.113 68.7775L459.221 35.351V67.8293C459.221 69.0936 458.667 69.7258 457.561 69.7258C456.455 69.7258 455.902 69.0936 455.902 67.8293V30.8467C455.902 30.2935 456.04 29.8194 456.316 29.4243C456.633 29.0292 457.087 28.8316 457.68 28.8316C458.43 28.8316 459.082 29.207 459.635 29.9577L484.29 63.2657Z" fill="#717171"/>
<path d="M414.768 64.4511C411.449 60.4999 409.789 55.4425 409.789 49.2787C409.789 43.115 411.449 38.0773 414.768 34.1656C418.126 30.2145 422.848 28.239 428.932 28.239C435.017 28.239 439.719 30.2145 443.038 34.1656C446.396 38.0773 448.076 43.115 448.076 49.2787C448.076 55.4425 446.396 60.4999 443.038 64.4511C439.719 68.3627 435.017 70.3185 428.932 70.3185C422.848 70.3185 418.126 68.3627 414.768 64.4511ZM417.553 36.4771C414.827 39.796 413.464 44.0632 413.464 49.2787C413.464 54.4942 414.827 58.7812 417.553 62.1396C420.319 65.4586 424.112 67.1181 428.932 67.1181C433.753 67.1181 437.526 65.4586 440.252 62.1396C443.018 58.7812 444.401 54.4942 444.401 49.2787C444.401 44.0632 443.018 39.796 440.252 36.4771C437.526 33.1186 433.753 31.4394 428.932 31.4394C424.112 31.4394 420.319 33.1186 417.553 36.4771Z" fill="#717171"/>
<path d="M398.429 67.8293V30.7281C398.429 30.175 398.587 29.7206 398.903 29.365C399.219 29.0094 399.654 28.8316 400.207 28.8316C400.76 28.8316 401.195 29.0094 401.511 29.365C401.827 29.7206 401.985 30.175 401.985 30.7281V67.8293C401.985 68.3824 401.827 68.8368 401.511 69.1924C401.195 69.548 400.76 69.7258 400.207 69.7258C399.654 69.7258 399.219 69.548 398.903 69.1924C398.587 68.8368 398.429 68.3824 398.429 67.8293Z" fill="#717171"/>
<path d="M391.38 32.032H378.045V67.8293C378.045 68.3824 377.887 68.8368 377.571 69.1924C377.254 69.548 376.82 69.7258 376.267 69.7258C375.714 69.7258 375.279 69.548 374.963 69.1924C374.647 68.8368 374.489 68.3824 374.489 67.8293V32.032H361.154C360.679 32.032 360.284 31.8937 359.968 31.6172C359.692 31.3011 359.553 30.9059 359.553 30.4318C359.553 29.9972 359.692 29.6218 359.968 29.3057C360.284 28.9896 360.679 28.8316 361.154 28.8316H391.38C391.854 28.8316 392.229 28.9896 392.506 29.3057C392.822 29.6218 392.98 29.9972 392.98 30.4318C392.98 30.9059 392.822 31.3011 392.506 31.6172C392.229 31.8937 391.854 32.032 391.38 32.032Z" fill="#717171"/>
<path d="M339.053 67.1181C346.718 67.1181 350.551 62.4755 350.551 53.1903V30.7281C350.551 30.175 350.709 29.7206 351.025 29.365C351.341 29.0094 351.776 28.8316 352.329 28.8316C352.882 28.8316 353.317 29.0094 353.633 29.365C353.949 29.7206 354.107 30.175 354.107 30.7281V53.3681C354.107 55.7388 353.85 57.9119 353.336 59.8875C352.823 61.8235 351.993 63.6016 350.847 65.2215C349.741 66.8415 348.16 68.1058 346.106 69.0146C344.091 69.8838 341.7 70.3185 338.935 70.3185C333.601 70.3185 329.768 68.7578 327.437 65.6364C325.106 62.515 323.94 58.4256 323.94 53.3681V30.7281C323.94 30.175 324.098 29.7206 324.414 29.365C324.73 29.0094 325.165 28.8316 325.718 28.8316C326.271 28.8316 326.706 29.0094 327.022 29.365C327.338 29.7206 327.496 30.175 327.496 30.7281V53.1903C327.496 62.4755 331.348 67.1181 339.053 67.1181Z" fill="#717171"/>
<path d="M320.145 69.7258H298.572C297.426 69.7258 296.853 69.0936 296.853 67.8293V30.7281C296.853 30.175 297.011 29.7206 297.327 29.365C297.643 29.0094 298.078 28.8316 298.631 28.8316C299.184 28.8316 299.619 29.0094 299.935 29.365C300.251 29.7206 300.409 30.175 300.409 30.7281V66.5254H320.145C320.619 66.5254 320.995 66.6834 321.271 66.9995C321.587 67.3156 321.745 67.691 321.745 68.1256C321.745 68.5997 321.587 68.9948 321.271 69.3109C320.995 69.5875 320.619 69.7258 320.145 69.7258Z" fill="#717171"/>
<path d="M255.719 64.4511C252.4 60.4999 250.741 55.4425 250.741 49.2787C250.741 43.115 252.4 38.0773 255.719 34.1656C259.078 30.2145 263.799 28.239 269.884 28.239C275.969 28.239 280.671 30.2145 283.989 34.1656C287.348 38.0773 289.027 43.115 289.027 49.2787C289.027 55.4425 287.348 60.4999 283.989 64.4511C280.671 68.3627 275.969 70.3185 269.884 70.3185C263.799 70.3185 259.078 68.3627 255.719 64.4511ZM258.505 36.4771C255.778 39.796 254.415 44.0632 254.415 49.2787C254.415 54.4942 255.778 58.7812 258.505 62.1396C261.27 65.4586 265.064 67.1181 269.884 67.1181C274.704 67.1181 278.478 65.4586 281.204 62.1396C283.97 58.7812 285.353 54.4942 285.353 49.2787C285.353 44.0632 283.97 39.796 281.204 36.4771C278.478 33.1186 274.704 31.4394 269.884 31.4394C265.064 31.4394 261.27 33.1186 258.505 36.4771Z" fill="#717171"/>
<path d="M231.714 31.4394C228.79 31.4394 226.577 32.0913 225.076 33.3952C223.614 34.6595 222.883 36.2993 222.883 38.3143C222.883 40.3689 223.653 42.0284 225.194 43.2928C226.735 44.5571 228.592 45.5449 230.765 46.2561C232.978 46.9673 235.171 47.7378 237.344 48.5675C239.557 49.3577 241.433 50.6023 242.974 52.3013C244.515 54.0003 245.286 56.1932 245.286 58.88C245.286 62.357 244.061 65.1425 241.611 67.2366C239.162 69.2912 235.704 70.3185 231.24 70.3185C227.17 70.3185 223.634 69.5283 220.631 67.9478C218.26 66.6439 217.43 65.4191 218.142 64.2733C218.221 64.1152 218.319 63.9967 218.438 63.9177C218.556 63.7991 218.675 63.7399 218.794 63.7399C218.952 63.7003 219.09 63.6806 219.208 63.6806C219.327 63.6411 219.465 63.6411 219.623 63.6806C219.821 63.7201 219.979 63.7794 220.097 63.8584C220.216 63.8979 220.374 63.9769 220.572 64.0955C220.769 64.1745 220.927 64.2535 221.046 64.3325C221.204 64.372 221.381 64.4511 221.579 64.5696C221.816 64.6881 221.994 64.7869 222.112 64.8659C224.878 66.3674 227.98 67.1181 231.417 67.1181C234.578 67.1181 237.067 66.4661 238.885 65.1623C240.703 63.8189 241.611 61.9026 241.611 59.4134C241.611 57.5958 241.058 56.0747 239.952 54.8498C238.845 53.5855 237.463 52.6569 235.803 52.0643C234.144 51.4321 232.346 50.7406 230.41 49.9899C228.474 49.2392 226.676 48.4885 225.017 47.7378C223.357 46.9476 221.974 45.7622 220.868 44.1818C219.762 42.6013 219.208 40.685 219.208 38.4329C219.208 35.4695 220.275 33.0396 222.409 31.143C224.582 29.207 227.723 28.239 231.832 28.239C235.665 28.239 238.984 29.1082 241.789 30.8467C243.646 31.9925 244.239 33.0593 243.567 34.0471C243.093 34.7583 241.927 34.62 240.07 33.6322C239.952 33.5927 239.873 33.5532 239.833 33.5137C237.186 32.1308 234.479 31.4394 231.714 31.4394Z" fill="#717171"/>
<path d="M145.986 50.5512L183.028 6.10101L198.716 41.8355L160.803 86.2857L145.986 50.5512Z" fill="#717171"/>
<path opacity="0.89" d="M129.426 44.4502L166.468 0L182.156 35.7345L144.243 80.1847L129.426 44.4502Z" fill="#22ABE2"/>
</svg>
